<svg xmlns="http://www.w3.org/2000/svg" width="600" height="150" viewBox="0 0 600 150">
<defs>

<style>
    .bg { fill: #0d1117; }
    .text { font-family: -apple-system, BlinkMacSystemFont, "Segoe UI", Helvetica, Arial, sans-serif; font-size: 13px; font-weight: 500; fill: #c9d1d9; }
    .text-title { font-weight: bold; }
    .bubble { fill: #30363d; stroke: #8b949e; stroke-width: 1px; rx: 4px; }
    
    .pika {
        animation: pikaMove 16s infinite;
        transform-origin: center bottom;
    }
    
    @keyframes pikaMove {
        0% { transform: translate(-50px, 60px) scaleX(1); }
        10% { transform: translate(150px, 30px) scaleX(1); }
        15% { transform: translate(200px, 60px) scaleX(1); }
        25% { transform: translate(350px, 60px) scaleX(1); }
        35% { transform: translate(450px, 40px) scaleX(1); }
        45% { transform: translate(550px, 60px) scaleX(1); }
        50% { transform: translate(550px, 60px) scaleX(-1); }
        60% { transform: translate(350px, 30px) scaleX(-1); }
        70% { transform: translate(250px, 60px) scaleX(-1); }
        80% { transform: translate(100px, 60px) scaleX(-1); }
        85% { transform: translate(50px, 30px) scaleX(-1); }
        100% { transform: translate(-50px, 60px) scaleX(1); }
    }
    
    .msg1, .msg2 { opacity: 0; animation-duration: 16s; animation-iteration-count: infinite; }
    
    .msg1 { animation-name: showMsg1; }
    @keyframes showMsg1 {
        0%, 20% { opacity: 0; }
        25%, 40% { opacity: 1; transform: translateY(-5px); }
        45%, 100% { opacity: 0; }
    }
    
    .msg2 { animation-name: showMsg2; }
    @keyframes showMsg2 {
        0%, 70% { opacity: 0; }
        75%, 90% { opacity: 1; transform: translateY(-5px); }
        95%, 100% { opacity: 0; }
    }
    
    .commit-pulse { animation: pulse 2s infinite alternate; }
    @keyframes pulse { 0% { opacity: 0.5; } 100% { opacity: 1; } }
</style>

</defs>
<rect width="100%" height="100%" class="bg" rx="6" />
<g transform="translate(10, 25)">
<rect width="12" height="12" x="0" y="0" fill="#161b22" rx="2" />
<rect width="12" height="12" x="0" y="14" fill="#161b22" rx="2" />
<rect width="12" height="12" x="0" y="28" fill="#0e4429" rx="2" />
<rect width="12" height="12" x="0" y="42" fill="#0e4429" rx="2" />
<rect width="12" height="12" x="0" y="56" fill="#006d32" rx="2" />
<rect width="12" height="12" x="0" y="70" fill="#0e4429" rx="2" />
<rect width="12" height="12" x="0" y="84" fill="#006d32" rx="2" />
<rect width="12" height="12" x="14" y="0" fill="#161b22" rx="2" />
<rect width="12" height="12" x="14" y="14" fill="#006d32" rx="2" />
<rect width="12" height="12" x="14" y="28" fill="#161b22" rx="2" />
<rect width="12" height="12" x="14" y="42" fill="#0e4429" rx="2" />
<rect width="12" height="12" x="14" y="56" fill="#26a641" rx="2" />
<rect width="12" height="12" x="14" y="70" fill="#161b22" rx="2" />
<rect width="12" height="12" x="14" y="84" fill="#161b22" rx="2" />
<rect width="12" height="12" x="28" y="0" fill="#26a641" rx="2" />
<rect width="12" height="12" x="28" y="14" fill="#161b22" rx="2" />
<rect width="12" height="12" x="28" y="28" fill="#161b22" rx="2" />
<rect width="12" height="12" x="28" y="42" fill="#0e4429" rx="2" />
<rect width="12" height="12" x="28" y="56" fill="#161b22" rx="2" />
<rect width="12" height="12" x="28" y="70" fill="#0e4429" rx="2" />
<rect width="12" height="12" x="28" y="84" fill="#26a641" rx="2" class="commit-pulse" />
<rect width="12" height="12" x="42" y="0" fill="#006d32" rx="2" />
<rect width="12" height="12" x="42" y="14" fill="#161b22" rx="2" />
<rect width="12" height="12" x="42" y="28" fill="#0e4429" rx="2" />
<rect width="12" height="12" x="42" y="42" fill="#161b22" rx="2" />
<rect width="12" height="12" x="42" y="56" fill="#26a641" rx="2" class="commit-pulse" />
<rect width="12" height="12" x="42" y="70" fill="#0e4429" rx="2" />
<rect width="12" height="12" x="42" y="84" fill="#161b22" rx="2" />
<rect width="12" height="12" x="56" y="0" fill="#39d353" rx="2" class="commit-pulse" />
<rect width="12" height="12" x="56" y="14" fill="#0e4429" rx="2" />
<rect width="12" height="12" x="56" y="28" fill="#39d353" rx="2" class="commit-pulse" />
<rect width="12" height="12" x="56" y="42" fill="#0e4429" rx="2" />
<rect width="12" height="12" x="56" y="56" fill="#0e4429" rx="2" />
<rect width="12" height="12" x="56" y="70" fill="#161b22" rx="2" />
<rect width="12" height="12" x="56" y="84" fill="#26a641" rx="2" class="commit-pulse" />
<rect width="12" height="12" x="70" y="0" fill="#0e4429" rx="2" />
<rect width="12" height="12" x="70" y="14" fill="#161b22" rx="2" />
<rect width="12" height="12" x="70" y="28" fill="#006d32" rx="2" />
<rect width="12" height="12" x="70" y="42" fill="#161b22" rx="2" />
<rect width="12" height="12" x="70" y="56" fill="#39d353" rx="2" class="commit-pulse" />
<rect width="12" height="12" x="70" y="70" fill="#161b22" rx="2" />
<rect width="12" height="12" x="70" y="84" fill="#161b22" rx="2" />
<rect width="12" height="12" x="84" y="0" fill="#161b22" rx="2" />
<rect width="12" height="12" x="84" y="14" fill="#26a641" rx="2" class="commit-pulse" />
<rect width="12" height="12" x="84" y="28" fill="#0e4429" rx="2" />
<rect width="12" height="12" x="84" y="42" fill="#161b22" rx="2" />
<rect width="12" height="12" x="84" y="56" fill="#161b22" rx="2" />
<rect width="12" height="12" x="84" y="70" fill="#26a641" rx="2" />
<rect width="12" height="12" x="84" y="84" fill="#0e4429" rx="2" />
<rect width="12" height="12" x="98" y="0" fill="#161b22" rx="2" />
<rect width="12" height="12" x="98" y="14" fill="#161b22" rx="2" />
<rect width="12" height="12" x="98" y="28" fill="#006d32" rx="2" />
<rect width="12" height="12" x="98" y="42" fill="#161b22" rx="2" />
<rect width="12" height="12" x="98" y="56" fill="#006d32" rx="2" />
<rect width="12" height="12" x="98" y="70" fill="#39d353" rx="2" class="commit-pulse" />
<rect width="12" height="12" x="98" y="84" fill="#161b22" rx="2" />
<rect width="12" height="12" x="112" y="0" fill="#26a641" rx="2" />
<rect width="12" height="12" x="112" y="14" fill="#0e4429" rx="2" />
<rect width="12" height="12" x="112" y="28" fill="#161b22" rx="2" />
<rect width="12" height="12" x="112" y="42" fill="#161b22" rx="2" />
<rect width="12" height="12" x="112" y="56" fill="#161b22" rx="2" />
<rect width="12" height="12" x="112" y="70" fill="#006d32" rx="2" />
<rect width="12" height="12" x="112" y="84" fill="#26a641" rx="2" />
<rect width="12" height="12" x="126" y="0" fill="#161b22" rx="2" />
<rect width="12" height="12" x="126" y="14" fill="#0e4429" rx="2" />
<rect width="12" height="12" x="126" y="28" fill="#006d32" rx="2" />
<rect width="12" height="12" x="126" y="42" fill="#006d32" rx="2" />
<rect width="12" height="12" x="126" y="56" fill="#0e4429" rx="2" />
<rect width="12" height="12" x="126" y="70" fill="#161b22" rx="2" />
<rect width="12" height="12" x="126" y="84" fill="#161b22" rx="2" />
<rect width="12" height="12" x="140" y="0" fill="#0e4429" rx="2" />
<rect width="12" height="12" x="140" y="14" fill="#161b22" rx="2" />
<rect width="12" height="12" x="140" y="28" fill="#0e4429" rx="2" />
<rect width="12" height="12" x="140" y="42" fill="#161b22" rx="2" />
<rect width="12" height="12" x="140" y="56" fill="#161b22" rx="2" />
<rect width="12" height="12" x="140" y="70" fill="#26a641" rx="2" class="commit-pulse" />
<rect width="12" height="12" x="140" y="84" fill="#39d353" rx="2" class="commit-pulse" />
<rect width="12" height="12" x="154" y="0" fill="#161b22" rx="2" />
<rect width="12" height="12" x="154" y="14" fill="#161b22" rx="2" />
<rect width="12" height="12" x="154" y="28" fill="#161b22" rx="2" />
<rect width="12" height="12" x="154" y="42" fill="#161b22" rx="2" />
<rect width="12" height="12" x="154" y="56" fill="#39d353" rx="2" class="commit-pulse" />
<rect width="12" height="12" x="154" y="70" fill="#161b22" rx="2" />
<rect width="12" height="12" x="154" y="84" fill="#161b22" rx="2" />
<rect width="12" height="12" x="168" y="0" fill="#0e4429" rx="2" />
<rect width="12" height="12" x="168" y="14" fill="#161b22" rx="2" />
<rect width="12" height="12" x="168" y="28" fill="#0e4429" rx="2" />
<rect width="12" height="12" x="168" y="42" fill="#161b22" rx="2" />
<rect width="12" height="12" x="168" y="56" fill="#161b22" rx="2" />
<rect width="12" height="12" x="168" y="70" fill="#161b22" rx="2" />
<rect width="12" height="12" x="168" y="84" fill="#161b22" rx="2" />
<rect width="12" height="12" x="182" y="0" fill="#26a641" rx="2" class="commit-pulse" />
<rect width="12" height="12" x="182" y="14" fill="#0e4429" rx="2" />
<rect width="12" height="12" x="182" y="28" fill="#161b22" rx="2" />
<rect width="12" height="12" x="182" y="42" fill="#006d32" rx="2" />
<rect width="12" height="12" x="182" y="56" fill="#006d32" rx="2" />
<rect width="12" height="12" x="182" y="70" fill="#161b22" rx="2" />
<rect width="12" height="12" x="182" y="84" fill="#161b22" rx="2" />
<rect width="12" height="12" x="196" y="0" fill="#161b22" rx="2" />
<rect width="12" height="12" x="196" y="14" fill="#006d32" rx="2" />
<rect width="12" height="12" x="196" y="28" fill="#161b22" rx="2" />
<rect width="12" height="12" x="196" y="42" fill="#39d353" rx="2" class="commit-pulse" />
<rect width="12" height="12" x="196" y="56" fill="#26a641" rx="2" class="commit-pulse" />
<rect width="12" height="12" x="196" y="70" fill="#0e4429" rx="2" />
<rect width="12" height="12" x="196" y="84" fill="#161b22" rx="2" />
<rect width="12" height="12" x="210" y="0" fill="#161b22" rx="2" />
<rect width="12" height="12" x="210" y="14" fill="#0e4429" rx="2" />
<rect width="12" height="12" x="210" y="28" fill="#161b22" rx="2" />
<rect width="12" height="12" x="210" y="42" fill="#006d32" rx="2" />
<rect width="12" height="12" x="210" y="56" fill="#0e4429" rx="2" />
<rect width="12" height="12" x="210" y="70" fill="#161b22" rx="2" />
<rect width="12" height="12" x="210" y="84" fill="#161b22" rx="2" />
<rect width="12" height="12" x="224" y="0" fill="#26a641" rx="2" class="commit-pulse" />
<rect width="12" height="12" x="224" y="14" fill="#0e4429" rx="2" />
<rect width="12" height="12" x="224" y="28" fill="#39d353" rx="2" class="commit-pulse" />
<rect width="12" height="12" x="224" y="42" fill="#0e4429" rx="2" />
<rect width="12" height="12" x="224" y="56" fill="#006d32" rx="2" />
<rect width="12" height="12" x="224" y="70" fill="#161b22" rx="2" />
<rect width="12" height="12" x="224" y="84" fill="#006d32" rx="2" />
<rect width="12" height="12" x="238" y="0" fill="#161b22" rx="2" />
<rect width="12" height="12" x="238" y="14" fill="#161b22" rx="2" />
<rect width="12" height="12" x="238" y="28" fill="#161b22" rx="2" />
<rect width="12" height="12" x="238" y="42" fill="#161b22" rx="2" />
<rect width="12" height="12" x="238" y="56" fill="#006d32" rx="2" />
<rect width="12" height="12" x="238" y="70" fill="#0e4429" rx="2" />
<rect width="12" height="12" x="238" y="84" fill="#161b22" rx="2" />
<rect width="12" height="12" x="252" y="0" fill="#161b22" rx="2" />
<rect width="12" height="12" x="252" y="14" fill="#161b22" rx="2" />
<rect width="12" height="12" x="252" y="28" fill="#26a641" rx="2" class="commit-pulse" />
<rect width="12" height="12" x="252" y="42" fill="#161b22" rx="2" />
<rect width="12" height="12" x="252" y="56" fill="#161b22" rx="2" />
<rect width="12" height="12" x="252" y="70" fill="#161b22" rx="2" />
<rect width="12" height="12" x="252" y="84" fill="#0e4429" rx="2" />
<rect width="12" height="12" x="266" y="0" fill="#39d353" rx="2" class="commit-pulse" />
<rect width="12" height="12" x="266" y="14" fill="#161b22" rx="2" />
<rect width="12" height="12" x="266" y="28" fill="#26a641" rx="2" />
<rect width="12" height="12" x="266" y="42" fill="#0e4429" rx="2" />
<rect width="12" height="12" x="266" y="56" fill="#161b22" rx="2" />
<rect width="12" height="12" x="266" y="70" fill="#161b22" rx="2" />
<rect width="12" height="12" x="266" y="84" fill="#161b22" rx="2" />
<rect width="12" height="12" x="280" y="0" fill="#006d32" rx="2" />
<rect width="12" height="12" x="280" y="14" fill="#0e4429" rx="2" />
<rect width="12" height="12" x="280" y="28" fill="#161b22" rx="2" />
<rect width="12" height="12" x="280" y="42" fill="#0e4429" rx="2" />
<rect width="12" height="12" x="280" y="56" fill="#0e4429" rx="2" />
<rect width="12" height="12" x="280" y="70" fill="#26a641" rx="2" class="commit-pulse" />
<rect width="12" height="12" x="280" y="84" fill="#006d32" rx="2" />
<rect width="12" height="12" x="294" y="0" fill="#161b22" rx="2" />
<rect width="12" height="12" x="294" y="14" fill="#161b22" rx="2" />
<rect width="12" height="12" x="294" y="28" fill="#161b22" rx="2" />
<rect width="12" height="12" x="294" y="42" fill="#161b22" rx="2" />
<rect width="12" height="12" x="294" y="56" fill="#161b22" rx="2" />
<rect width="12" height="12" x="294" y="70" fill="#39d353" rx="2" class="commit-pulse" />
<rect width="12" height="12" x="294" y="84" fill="#0e4429" rx="2" />
<rect width="12" height="12" x="308" y="0" fill="#39d353" rx="2" class="commit-pulse" />
<rect width="12" height="12" x="308" y="14" fill="#006d32" rx="2" />
<rect width="12" height="12" x="308" y="28" fill="#006d32" rx="2" />
<rect width="12" height="12" x="308" y="42" fill="#161b22" rx="2" />
<rect width="12" height="12" x="308" y="56" fill="#006d32" rx="2" />
<rect width="12" height="12" x="308" y="70" fill="#006d32" rx="2" />
<rect width="12" height="12" x="308" y="84" fill="#006d32" rx="2" />
<rect width="12" height="12" x="322" y="0" fill="#161b22" rx="2" />
<rect width="12" height="12" x="322" y="14" fill="#006d32" rx="2" />
<rect width="12" height="12" x="322" y="28" fill="#0e4429" rx="2" />
<rect width="12" height="12" x="322" y="42" fill="#0e4429" rx="2" />
<rect width="12" height="12" x="322" y="56" fill="#0e4429" rx="2" />
<rect width="12" height="12" x="322" y="70" fill="#161b22" rx="2" />
<rect width="12" height="12" x="322" y="84" fill="#26a641" rx="2" />
<rect width="12" height="12" x="336" y="0" fill="#0e4429" rx="2" />
<rect width="12" height="12" x="336" y="14" fill="#0e4429" rx="2" />
<rect width="12" height="12" x="336" y="28" fill="#161b22" rx="2" />
<rect width="12" height="12" x="336" y="42" fill="#161b22" rx="2" />
<rect width="12" height="12" x="336" y="56" fill="#161b22" rx="2" />
<rect width="12" height="12" x="336" y="70" fill="#39d353" rx="2" class="commit-pulse" />
<rect width="12" height="12" x="336" y="84" fill="#006d32" rx="2" />
<rect width="12" height="12" x="350" y="0" fill="#161b22" rx="2" />
<rect width="12" height="12" x="350" y="14" fill="#006d32" rx="2" />
<rect width="12" height="12" x="350" y="28" fill="#0e4429" rx="2" />
<rect width="12" height="12" x="350" y="42" fill="#161b22" rx="2" />
<rect width="12" height="12" x="350" y="56" fill="#0e4429" rx="2" />
<rect width="12" height="12" x="350" y="70" fill="#006d32" rx="2" />
<rect width="12" height="12" x="350" y="84" fill="#006d32" rx="2" />
<rect width="12" height="12" x="364" y="0" fill="#006d32" rx="2" />
<rect width="12" height="12" x="364" y="14" fill="#006d32" rx="2" />
<rect width="12" height="12" x="364" y="28" fill="#161b22" rx="2" />
<rect width="12" height="12" x="364" y="42" fill="#0e4429" rx="2" />
<rect width="12" height="12" x="364" y="56" fill="#0e4429" rx="2" />
<rect width="12" height="12" x="364" y="70" fill="#0e4429" rx="2" />
<rect width="12" height="12" x="364" y="84" fill="#26a641" rx="2" class="commit-pulse" />
<rect width="12" height="12" x="378" y="0" fill="#161b22" rx="2" />
<rect width="12" height="12" x="378" y="14" fill="#39d353" rx="2" class="commit-pulse" />
<rect width="12" height="12" x="378" y="28" fill="#26a641" rx="2" class="commit-pulse" />
<rect width="12" height="12" x="378" y="42" fill="#161b22" rx="2" />
<rect width="12" height="12" x="378" y="56" fill="#161b22" rx="2" />
<rect width="12" height="12" x="378" y="70" fill="#161b22" rx="2" />
<rect width="12" height="12" x="378" y="84" fill="#0e4429" rx="2" />
<rect width="12" height="12" x="392" y="0" fill="#161b22" rx="2" />
<rect width="12" height="12" x="392" y="14" fill="#161b22" rx="2" />
<rect width="12" height="12" x="392" y="28" fill="#0e4429" rx="2" />
<rect width="12" height="12" x="392" y="42" fill="#161b22" rx="2" />
<rect width="12" height="12" x="392" y="56" fill="#161b22" rx="2" />
<rect width="12" height="12" x="392" y="70" fill="#0e4429" rx="2" />
<rect width="12" height="12" x="392" y="84" fill="#161b22" rx="2" />
<rect width="12" height="12" x="406" y="0" fill="#161b22" rx="2" />
<rect width="12" height="12" x="406" y="14" fill="#0e4429" rx="2" />
<rect width="12" height="12" x="406" y="28" fill="#006d32" rx="2" />
<rect width="12" height="12" x="406" y="42" fill="#161b22" rx="2" />
<rect width="12" height="12" x="406" y="56" fill="#161b22" rx="2" />
<rect width="12" height="12" x="406" y="70" fill="#161b22" rx="2" />
<rect width="12" height="12" x="406" y="84" fill="#161b22" rx="2" />
<rect width="12" height="12" x="420" y="0" fill="#0e4429" rx="2" />
<rect width="12" height="12" x="420" y="14" fill="#0e4429" rx="2" />
<rect width="12" height="12" x="420" y="28" fill="#0e4429" rx="2" />
<rect width="12" height="12" x="420" y="42" fill="#0e4429" rx="2" />
<rect width="12" height="12" x="420" y="56" fill="#161b22" rx="2" />
<rect width="12" height="12" x="420" y="70" fill="#26a641" rx="2" class="commit-pulse" />
<rect width="12" height="12" x="420" y="84" fill="#161b22" rx="2" />
<rect width="12" height="12" x="434" y="0" fill="#161b22" rx="2" />
<rect width="12" height="12" x="434" y="14" fill="#006d32" rx="2" />
<rect width="12" height="12" x="434" y="28" fill="#006d32" rx="2" />
<rect width="12" height="12" x="434" y="42" fill="#161b22" rx="2" />
<rect width="12" height="12" x="434" y="56" fill="#0e4429" rx="2" />
<rect width="12" height="12" x="434" y="70" fill="#0e4429" rx="2" />
<rect width="12" height="12" x="434" y="84" fill="#26a641" rx="2" class="commit-pulse" />
<rect width="12" height="12" x="448" y="0" fill="#161b22" rx="2" />
<rect width="12" height="12" x="448" y="14" fill="#39d353" rx="2" class="commit-pulse" />
<rect width="12" height="12" x="448" y="28" fill="#161b22" rx="2" />
<rect width="12" height="12" x="448" y="42" fill="#006d32" rx="2" />
<rect width="12" height="12" x="448" y="56" fill="#161b22" rx="2" />
<rect width="12" height="12" x="448" y="70" fill="#161b22" rx="2" />
<rect width="12" height="12" x="448" y="84" fill="#161b22" rx="2" />
<rect width="12" height="12" x="462" y="0" fill="#26a641" rx="2" class="commit-pulse" />
<rect width="12" height="12" x="462" y="14" fill="#0e4429" rx="2" />
<rect width="12" height="12" x="462" y="28" fill="#26a641" rx="2" />
<rect width="12" height="12" x="462" y="42" fill="#161b22" rx="2" />
<rect width="12" height="12" x="462" y="56" fill="#161b22" rx="2" />
<rect width="12" height="12" x="462" y="70" fill="#161b22" rx="2" />
<rect width="12" height="12" x="462" y="84" fill="#161b22" rx="2" />
<rect width="12" height="12" x="476" y="0" fill="#006d32" rx="2" />
<rect width="12" height="12" x="476" y="14" fill="#006d32" rx="2" />
<rect width="12" height="12" x="476" y="28" fill="#006d32" rx="2" />
<rect width="12" height="12" x="476" y="42" fill="#161b22" rx="2" />
<rect width="12" height="12" x="476" y="56" fill="#161b22" rx="2" />
<rect width="12" height="12" x="476" y="70" fill="#161b22" rx="2" />
<rect width="12" height="12" x="476" y="84" fill="#0e4429" rx="2" />
<rect width="12" height="12" x="490" y="0" fill="#39d353" rx="2" class="commit-pulse" />
<rect width="12" height="12" x="490" y="14" fill="#0e4429" rx="2" />
<rect width="12" height="12" x="490" y="28" fill="#0e4429" rx="2" />
<rect width="12" height="12" x="490" y="42" fill="#006d32" rx="2" />
<rect width="12" height="12" x="490" y="56" fill="#161b22" rx="2" />
<rect width="12" height="12" x="490" y="70" fill="#006d32" rx="2" />
<rect width="12" height="12" x="490" y="84" fill="#006d32" rx="2" />
<rect width="12" height="12" x="504" y="0" fill="#161b22" rx="2" />
<rect width="12" height="12" x="504" y="14" fill="#26a641" rx="2" />
<rect width="12" height="12" x="504" y="28" fill="#39d353" rx="2" class="commit-pulse" />
<rect width="12" height="12" x="504" y="42" fill="#161b22" rx="2" />
<rect width="12" height="12" x="504" y="56" fill="#161b22" rx="2" />
<rect width="12" height="12" x="504" y="70" fill="#161b22" rx="2" />
<rect width="12" height="12" x="504" y="84" fill="#0e4429" rx="2" />
<rect width="12" height="12" x="518" y="0" fill="#0e4429" rx="2" />
<rect width="12" height="12" x="518" y="14" fill="#161b22" rx="2" />
<rect width="12" height="12" x="518" y="28" fill="#161b22" rx="2" />
<rect width="12" height="12" x="518" y="42" fill="#0e4429" rx="2" />
<rect width="12" height="12" x="518" y="56" fill="#006d32" rx="2" />
<rect width="12" height="12" x="518" y="70" fill="#0e4429" rx="2" />
<rect width="12" height="12" x="518" y="84" fill="#0e4429" rx="2" />
<rect width="12" height="12" x="532" y="0" fill="#0e4429" rx="2" />
<rect width="12" height="12" x="532" y="14" fill="#006d32" rx="2" />
<rect width="12" height="12" x="532" y="28" fill="#161b22" rx="2" />
<rect width="12" height="12" x="532" y="42" fill="#161b22" rx="2" />
<rect width="12" height="12" x="532" y="56" fill="#0e4429" rx="2" />
<rect width="12" height="12" x="532" y="70" fill="#161b22" rx="2" />
<rect width="12" height="12" x="532" y="84" fill="#161b22" rx="2" />
<rect width="12" height="12" x="546" y="0" fill="#161b22" rx="2" />
<rect width="12" height="12" x="546" y="14" fill="#0e4429" rx="2" />
<rect width="12" height="12" x="546" y="28" fill="#006d32" rx="2" />
<rect width="12" height="12" x="546" y="42" fill="#0e4429" rx="2" />
<rect width="12" height="12" x="546" y="56" fill="#161b22" rx="2" />
<rect width="12" height="12" x="546" y="70" fill="#161b22" rx="2" />
<rect width="12" height="12" x="546" y="84" fill="#161b22" rx="2" />
<rect width="12" height="12" x="560" y="0" fill="#006d32" rx="2" />
<rect width="12" height="12" x="560" y="14" fill="#161b22" rx="2" />
<rect width="12" height="12" x="560" y="28" fill="#0e4429" rx="2" />
<rect width="12" height="12" x="560" y="42" fill="#161b22" rx="2" />
<rect width="12" height="12" x="560" y="56" fill="#39d353" rx="2" class="commit-pulse" />
<rect width="12" height="12" x="560" y="70" fill="#161b22" rx="2" />
<rect width="12" height="12" x="560" y="84" fill="#006d32" rx="2" />
<rect width="12" height="12" x="574" y="0" fill="#161b22" rx="2" />
<rect width="12" height="12" x="574" y="14" fill="#0e4429" rx="2" />
<rect width="12" height="12" x="574" y="28" fill="#161b22" rx="2" />
<rect width="12" height="12" x="574" y="42" fill="#0e4429" rx="2" />
<rect width="12" height="12" x="574" y="56" fill="#161b22" rx="2" />
<rect width="12" height="12" x="574" y="70" fill="#0e4429" rx="2" />
<rect width="12" height="12" x="574" y="84" fill="#161b22" rx="2" />
</g>
<text x="10" y="16" class="text"><tspan class="text-title">Prathamesh's</tspan> Contributions</text>
<g class="pika">
<g transform="translate(0, 0)">
<rect x="6" y="0" width="3" height="3" fill="#000000" />
<rect x="39" y="0" width="3" height="3" fill="#000000" />
<rect x="6" y="3" width="3" height="3" fill="#000000" />
<rect x="9" y="3" width="3" height="3" fill="#000000" />
<rect x="36" y="3" width="3" height="3" fill="#000000" />
<rect x="39" y="3" width="3" height="3" fill="#000000" />
<rect x="6" y="6" width="3" height="3" fill="#FADB14" />
<rect x="9" y="6" width="3" height="3" fill="#000000" />
<rect x="12" y="6" width="3" height="3" fill="#000000" />
<rect x="15" y="6" width="3" height="3" fill="#FADB14" />
<rect x="18" y="6" width="3" height="3" fill="#FADB14" />
<rect x="21" y="6" width="3" height="3" fill="#FADB14" />
<rect x="24" y="6" width="3" height="3" fill="#FADB14" />
<rect x="27" y="6" width="3" height="3" fill="#FADB14" />
<rect x="30" y="6" width="3" height="3" fill="#FADB14" />
<rect x="33" y="6" width="3" height="3" fill="#000000" />
<rect x="36" y="6" width="3" height="3" fill="#000000" />
<rect x="39" y="6" width="3" height="3" fill="#FADB14" />
<rect x="3" y="9" width="3" height="3" fill="#FADB14" />
<rect x="6" y="9" width="3" height="3" fill="#FADB14" />
<rect x="9" y="9" width="3" height="3" fill="#FADB14" />
<rect x="12" y="9" width="3" height="3" fill="#FADB14" />
<rect x="15" y="9" width="3" height="3" fill="#FADB14" />
<rect x="18" y="9" width="3" height="3" fill="#FADB14" />
<rect x="21" y="9" width="3" height="3" fill="#FADB14" />
<rect x="24" y="9" width="3" height="3" fill="#FADB14" />
<rect x="27" y="9" width="3" height="3" fill="#FADB14" />
<rect x="30" y="9" width="3" height="3" fill="#FADB14" />
<rect x="33" y="9" width="3" height="3" fill="#FADB14" />
<rect x="36" y="9" width="3" height="3" fill="#FADB14" />
<rect x="39" y="9" width="3" height="3" fill="#FADB14" />
<rect x="42" y="9" width="3" height="3" fill="#FADB14" />
<rect x="3" y="12" width="3" height="3" fill="#FADB14" />
<rect x="6" y="12" width="3" height="3" fill="#FADB14" />
<rect x="9" y="12" width="3" height="3" fill="#FADB14" />
<rect x="12" y="12" width="3" height="3" fill="#FADB14" />
<rect x="15" y="12" width="3" height="3" fill="#FADB14" />
<rect x="18" y="12" width="3" height="3" fill="#FADB14" />
<rect x="21" y="12" width="3" height="3" fill="#FADB14" />
<rect x="24" y="12" width="3" height="3" fill="#FADB14" />
<rect x="27" y="12" width="3" height="3" fill="#FADB14" />
<rect x="30" y="12" width="3" height="3" fill="#FADB14" />
<rect x="33" y="12" width="3" height="3" fill="#FADB14" />
<rect x="36" y="12" width="3" height="3" fill="#FADB14" />
<rect x="39" y="12" width="3" height="3" fill="#FADB14" />
<rect x="42" y="12" width="3" height="3" fill="#FADB14" />
<rect x="3" y="15" width="3" height="3" fill="#FADB14" />
<rect x="6" y="15" width="3" height="3" fill="#FADB14" />
<rect x="9" y="15" width="3" height="3" fill="#000000" />
<rect x="12" y="15" width="3" height="3" fill="#FADB14" />
<rect x="15" y="15" width="3" height="3" fill="#FADB14" />
<rect x="18" y="15" width="3" height="3" fill="#FADB14" />
<rect x="21" y="15" width="3" height="3" fill="#FADB14" />
<rect x="24" y="15" width="3" height="3" fill="#FADB14" />
<rect x="27" y="15" width="3" height="3" fill="#FADB14" />
<rect x="30" y="15" width="3" height="3" fill="#FADB14" />
<rect x="33" y="15" width="3" height="3" fill="#FADB14" />
<rect x="36" y="15" width="3" height="3" fill="#000000" />
<rect x="39" y="15" width="3" height="3" fill="#FADB14" />
<rect x="42" y="15" width="3" height="3" fill="#FADB14" />
<rect x="3" y="18" width="3" height="3" fill="#FADB14" />
<rect x="6" y="18" width="3" height="3" fill="#FADB14" />
<rect x="9" y="18" width="3" height="3" fill="#000000" />
<rect x="12" y="18" width="3" height="3" fill="#FADB14" />
<rect x="15" y="18" width="3" height="3" fill="#FADB14" />
<rect x="18" y="18" width="3" height="3" fill="#FADB14" />
<rect x="21" y="18" width="3" height="3" fill="#FADB14" />
<rect x="24" y="18" width="3" height="3" fill="#FADB14" />
<rect x="27" y="18" width="3" height="3" fill="#FADB14" />
<rect x="30" y="18" width="3" height="3" fill="#FADB14" />
<rect x="33" y="18" width="3" height="3" fill="#FADB14" />
<rect x="36" y="18" width="3" height="3" fill="#000000" />
<rect x="39" y="18" width="3" height="3" fill="#FADB14" />
<rect x="42" y="18" width="3" height="3" fill="#FADB14" />
<rect x="3" y="21" width="3" height="3" fill="#FADB14" />
<rect x="6" y="21" width="3" height="3" fill="#FADB14" />
<rect x="9" y="21" width="3" height="3" fill="#FADB14" />
<rect x="12" y="21" width="3" height="3" fill="#FADB14" />
<rect x="15" y="21" width="3" height="3" fill="#FADB14" />
<rect x="18" y="21" width="3" height="3" fill="#000000" />
<rect x="21" y="21" width="3" height="3" fill="#000000" />
<rect x="24" y="21" width="3" height="3" fill="#000000" />
<rect x="27" y="21" width="3" height="3" fill="#000000" />
<rect x="30" y="21" width="3" height="3" fill="#FADB14" />
<rect x="33" y="21" width="3" height="3" fill="#FADB14" />
<rect x="36" y="21" width="3" height="3" fill="#FADB14" />
<rect x="39" y="21" width="3" height="3" fill="#FADB14" />
<rect x="42" y="21" width="3" height="3" fill="#FADB14" />
<rect x="0" y="24" width="3" height="3" fill="#FF4D4F" />
<rect x="3" y="24" width="3" height="3" fill="#FF4D4F" />
<rect x="6" y="24" width="3" height="3" fill="#FADB14" />
<rect x="9" y="24" width="3" height="3" fill="#FADB14" />
<rect x="12" y="24" width="3" height="3" fill="#FADB14" />
<rect x="15" y="24" width="3" height="3" fill="#FADB14" />
<rect x="18" y="24" width="3" height="3" fill="#FADB14" />
<rect x="21" y="24" width="3" height="3" fill="#FADB14" />
<rect x="24" y="24" width="3" height="3" fill="#FADB14" />
<rect x="27" y="24" width="3" height="3" fill="#FADB14" />
<rect x="30" y="24" width="3" height="3" fill="#FADB14" />
<rect x="33" y="24" width="3" height="3" fill="#FADB14" />
<rect x="36" y="24" width="3" height="3" fill="#FADB14" />
<rect x="39" y="24" width="3" height="3" fill="#FADB14" />
<rect x="42" y="24" width="3" height="3" fill="#FF4D4F" />
<rect x="45" y="24" width="3" height="3" fill="#FF4D4F" />
<rect x="0" y="27" width="3" height="3" fill="#FF4D4F" />
<rect x="3" y="27" width="3" height="3" fill="#FF4D4F" />
<rect x="6" y="27" width="3" height="3" fill="#FADB14" />
<rect x="9" y="27" width="3" height="3" fill="#FADB14" />
<rect x="12" y="27" width="3" height="3" fill="#FADB14" />
<rect x="15" y="27" width="3" height="3" fill="#FADB14" />
<rect x="18" y="27" width="3" height="3" fill="#FADB14" />
<rect x="21" y="27" width="3" height="3" fill="#FADB14" />
<rect x="24" y="27" width="3" height="3" fill="#FADB14" />
<rect x="27" y="27" width="3" height="3" fill="#FADB14" />
<rect x="30" y="27" width="3" height="3" fill="#FADB14" />
<rect x="33" y="27" width="3" height="3" fill="#FADB14" />
<rect x="36" y="27" width="3" height="3" fill="#FADB14" />
<rect x="39" y="27" width="3" height="3" fill="#FADB14" />
<rect x="42" y="27" width="3" height="3" fill="#FF4D4F" />
<rect x="45" y="27" width="3" height="3" fill="#FF4D4F" />
<rect x="3" y="30" width="3" height="3" fill="#FADB14" />
<rect x="6" y="30" width="3" height="3" fill="#FADB14" />
<rect x="9" y="30" width="3" height="3" fill="#FADB14" />
<rect x="12" y="30" width="3" height="3" fill="#FADB14" />
<rect x="15" y="30" width="3" height="3" fill="#FADB14" />
<rect x="18" y="30" width="3" height="3" fill="#FADB14" />
<rect x="21" y="30" width="3" height="3" fill="#FADB14" />
<rect x="24" y="30" width="3" height="3" fill="#FADB14" />
<rect x="27" y="30" width="3" height="3" fill="#FADB14" />
<rect x="30" y="30" width="3" height="3" fill="#FADB14" />
<rect x="33" y="30" width="3" height="3" fill="#FADB14" />
<rect x="36" y="30" width="3" height="3" fill="#FADB14" />
<rect x="39" y="30" width="3" height="3" fill="#FADB14" />
<rect x="42" y="30" width="3" height="3" fill="#FADB14" />
<rect x="6" y="33" width="3" height="3" fill="#FADB14" />
<rect x="9" y="33" width="3" height="3" fill="#FADB14" />
<rect x="12" y="33" width="3" height="3" fill="#FADB14" />
<rect x="15" y="33" width="3" height="3" fill="#FADB14" />
<rect x="18" y="33" width="3" height="3" fill="#FADB14" />
<rect x="21" y="33" width="3" height="3" fill="#FADB14" />
<rect x="24" y="33" width="3" height="3" fill="#FADB14" />
<rect x="27" y="33" width="3" height="3" fill="#FADB14" />
<rect x="30" y="33" width="3" height="3" fill="#FADB14" />
<rect x="33" y="33" width="3" height="3" fill="#FADB14" />
<rect x="36" y="33" width="3" height="3" fill="#FADB14" />
<rect x="39" y="33" width="3" height="3" fill="#FADB14" />
<rect x="45" y="33" width="3" height="3" fill="#D48806" />
<rect x="9" y="36" width="3" height="3" fill="#FADB14" />
<rect x="12" y="36" width="3" height="3" fill="#FADB14" />
<rect x="15" y="36" width="3" height="3" fill="#FADB14" />
<rect x="18" y="36" width="3" height="3" fill="#FADB14" />
<rect x="21" y="36" width="3" height="3" fill="#FADB14" />
<rect x="24" y="36" width="3" height="3" fill="#FADB14" />
<rect x="27" y="36" width="3" height="3" fill="#FADB14" />
<rect x="30" y="36" width="3" height="3" fill="#FADB14" />
<rect x="33" y="36" width="3" height="3" fill="#FADB14" />
<rect x="36" y="36" width="3" height="3" fill="#FADB14" />
<rect x="42" y="36" width="3" height="3" fill="#D48806" />
<rect x="45" y="36" width="3" height="3" fill="#D48806" />
<rect x="12" y="39" width="3" height="3" fill="#FADB14" />
<rect x="15" y="39" width="3" height="3" fill="#FADB14" />
<rect x="18" y="39" width="3" height="3" fill="#FADB14" />
<rect x="21" y="39" width="3" height="3" fill="#FADB14" />
<rect x="24" y="39" width="3" height="3" fill="#FADB14" />
<rect x="27" y="39" width="3" height="3" fill="#FADB14" />
<rect x="30" y="39" width="3" height="3" fill="#FADB14" />
<rect x="33" y="39" width="3" height="3" fill="#FADB14" />
<rect x="42" y="39" width="3" height="3" fill="#D48806" />
<rect x="9" y="42" width="3" height="3" fill="#FADB14" />
<rect x="12" y="42" width="3" height="3" fill="#FADB14" />
<rect x="15" y="42" width="3" height="3" fill="#FADB14" />
<rect x="30" y="42" width="3" height="3" fill="#FADB14" />
<rect x="33" y="42" width="3" height="3" fill="#FADB14" />
<rect x="36" y="42" width="3" height="3" fill="#FADB14" />
<rect x="6" y="45" width="3" height="3" fill="#FADB14" />
<rect x="9" y="45" width="3" height="3" fill="#FADB14" />
<rect x="12" y="45" width="3" height="3" fill="#FADB14" />
<rect x="15" y="45" width="3" height="3" fill="#FADB14" />
<rect x="30" y="45" width="3" height="3" fill="#FADB14" />
<rect x="33" y="45" width="3" height="3" fill="#FADB14" />
<rect x="36" y="45" width="3" height="3" fill="#FADB14" />
<rect x="39" y="45" width="3" height="3" fill="#FADB14" />
<g class="msg1" transform="translate(40, -30)">
<rect width="180" height="24" class="bubble" />
<text x="10" y="16" class="text">⚡ Pikachu learned Python!</text>
</g>
<g class="msg2" transform="translate(40, -30)">
<rect width="210" height="24" class="bubble" />
<text x="10" y="16" class="text">🦉 Night Owl Mode Activated</text>
</g>
</g>
</g>
</svg>