<svg xmlns="http://www.w3.org/2000/svg" width="600" height="160" viewBox="0 0 600 160">
<defs>

<style>
    .bg { fill: #0d1117; }
    .text { font-family: -apple-system, BlinkMacSystemFont, "Segoe UI", Helvetica, Arial, sans-serif; font-size: 13px; font-weight: 500; fill: #c9d1d9; }
    .text-title { font-weight: bold; }
    .bubble { fill: #30363d; stroke: #8b949e; stroke-width: 1px; rx: 4px; }
    
    .pika {
        animation: pikaMove 30s infinite;
        transform-origin: center bottom;
    }
    
    @keyframes pikaMove {
        0% { transform: translate(-50px, 70px) scaleX(1); }
        10% { transform: translate(150px, 40px) scaleX(1); }
        20% { transform: translate(250px, 70px) scaleX(1); }
        30% { transform: translate(450px, 50px) scaleX(1); }
        40% { transform: translate(550px, 70px) scaleX(1); }
        50% { transform: translate(550px, 70px) scaleX(-1); }
        60% { transform: translate(450px, 40px) scaleX(-1); }
        70% { transform: translate(250px, 70px) scaleX(-1); }
        80% { transform: translate(100px, 70px) scaleX(-1); }
        90% { transform: translate(50px, 40px) scaleX(-1); }
        100% { transform: translate(-50px, 70px) scaleX(1); }
    }
    
    
    .msg0 { opacity: 0; animation: showMsg0 30s infinite; }
    @keyframes showMsg0 {
        0%, 0% { opacity: 0; transform: translateY(0); }
        2.0%, 14.666666666666668% { opacity: 1; transform: translateY(-5px); }
        16.666666666666668%, 100% { opacity: 0; transform: translateY(0); }
    }
    
    .msg1 { opacity: 0; animation: showMsg1 30s infinite; }
    @keyframes showMsg1 {
        0%, 15.666666666666668% { opacity: 0; transform: translateY(0); }
        18.666666666666668%, 31.333333333333336% { opacity: 1; transform: translateY(-5px); }
        33.333333333333336%, 100% { opacity: 0; transform: translateY(0); }
    }
    
    .msg2 { opacity: 0; animation: showMsg2 30s infinite; }
    @keyframes showMsg2 {
        0%, 32.333333333333336% { opacity: 0; transform: translateY(0); }
        35.333333333333336%, 48.0% { opacity: 1; transform: translateY(-5px); }
        50.0%, 100% { opacity: 0; transform: translateY(0); }
    }
    
    .msg3 { opacity: 0; animation: showMsg3 30s infinite; }
    @keyframes showMsg3 {
        0%, 49.0% { opacity: 0; transform: translateY(0); }
        52.0%, 64.66666666666667% { opacity: 1; transform: translateY(-5px); }
        66.66666666666667%, 100% { opacity: 0; transform: translateY(0); }
    }
    
    .msg4 { opacity: 0; animation: showMsg4 30s infinite; }
    @keyframes showMsg4 {
        0%, 65.66666666666667% { opacity: 0; transform: translateY(0); }
        68.66666666666667%, 81.33333333333334% { opacity: 1; transform: translateY(-5px); }
        83.33333333333334%, 100% { opacity: 0; transform: translateY(0); }
    }
    
    .msg5 { opacity: 0; animation: showMsg5 30s infinite; }
    @keyframes showMsg5 {
        0%, 82.33333333333334% { opacity: 0; transform: translateY(0); }
        85.33333333333334%, 98.00000000000001% { opacity: 1; transform: translateY(-5px); }
        100.00000000000001%, 100% { opacity: 0; transform: translateY(0); }
    }
    
    
    .commit-pulse { animation: pulse 2s infinite alternate; }
    @keyframes pulse { 0% { opacity: 0.5; } 100% { opacity: 1; } }
</style>

</defs>
<rect width="100%" height="100%" class="bg" rx="6" />
<g transform="translate(12, 35)">
<rect width="12" height="12" x="0" y="0" fill="#161b22" rx="2" />
<rect width="12" height="12" x="0" y="14" fill="#161b22" rx="2" />
<rect width="12" height="12" x="0" y="28" fill="#0e4429" rx="2" />
<rect width="12" height="12" x="0" y="42" fill="#161b22" rx="2" />
<rect width="12" height="12" x="0" y="56" fill="#0e4429" rx="2" />
<rect width="12" height="12" x="0" y="70" fill="#0e4429" rx="2" />
<rect width="12" height="12" x="0" y="84" fill="#161b22" rx="2" />
<rect width="12" height="12" x="14" y="0" fill="#26a641" rx="2" class="commit-pulse" />
<rect width="12" height="12" x="14" y="14" fill="#006d32" rx="2" />
<rect width="12" height="12" x="14" y="28" fill="#161b22" rx="2" />
<rect width="12" height="12" x="14" y="42" fill="#26a641" rx="2" class="commit-pulse" />
<rect width="12" height="12" x="14" y="56" fill="#161b22" rx="2" />
<rect width="12" height="12" x="14" y="70" fill="#161b22" rx="2" />
<rect width="12" height="12" x="14" y="84" fill="#161b22" rx="2" />
<rect width="12" height="12" x="28" y="0" fill="#0e4429" rx="2" />
<rect width="12" height="12" x="28" y="14" fill="#161b22" rx="2" />
<rect width="12" height="12" x="28" y="28" fill="#006d32" rx="2" />
<rect width="12" height="12" x="28" y="42" fill="#006d32" rx="2" />
<rect width="12" height="12" x="28" y="56" fill="#0e4429" rx="2" />
<rect width="12" height="12" x="28" y="70" fill="#161b22" rx="2" />
<rect width="12" height="12" x="28" y="84" fill="#161b22" rx="2" />
<rect width="12" height="12" x="42" y="0" fill="#26a641" rx="2" />
<rect width="12" height="12" x="42" y="14" fill="#26a641" rx="2" />
<rect width="12" height="12" x="42" y="28" fill="#0e4429" rx="2" />
<rect width="12" height="12" x="42" y="42" fill="#0e4429" rx="2" />
<rect width="12" height="12" x="42" y="56" fill="#006d32" rx="2" />
<rect width="12" height="12" x="42" y="70" fill="#161b22" rx="2" />
<rect width="12" height="12" x="42" y="84" fill="#26a641" rx="2" />
<rect width="12" height="12" x="56" y="0" fill="#161b22" rx="2" />
<rect width="12" height="12" x="56" y="14" fill="#006d32" rx="2" />
<rect width="12" height="12" x="56" y="28" fill="#006d32" rx="2" />
<rect width="12" height="12" x="56" y="42" fill="#161b22" rx="2" />
<rect width="12" height="12" x="56" y="56" fill="#161b22" rx="2" />
<rect width="12" height="12" x="56" y="70" fill="#006d32" rx="2" />
<rect width="12" height="12" x="56" y="84" fill="#161b22" rx="2" />
<rect width="12" height="12" x="70" y="0" fill="#39d353" rx="2" class="commit-pulse" />
<rect width="12" height="12" x="70" y="14" fill="#0e4429" rx="2" />
<rect width="12" height="12" x="70" y="28" fill="#161b22" rx="2" />
<rect width="12" height="12" x="70" y="42" fill="#006d32" rx="2" />
<rect width="12" height="12" x="70" y="56" fill="#161b22" rx="2" />
<rect width="12" height="12" x="70" y="70" fill="#0e4429" rx="2" />
<rect width="12" height="12" x="70" y="84" fill="#161b22" rx="2" />
<rect width="12" height="12" x="84" y="0" fill="#161b22" rx="2" />
<rect width="12" height="12" x="84" y="14" fill="#161b22" rx="2" />
<rect width="12" height="12" x="84" y="28" fill="#0e4429" rx="2" />
<rect width="12" height="12" x="84" y="42" fill="#161b22" rx="2" />
<rect width="12" height="12" x="84" y="56" fill="#161b22" rx="2" />
<rect width="12" height="12" x="84" y="70" fill="#006d32" rx="2" />
<rect width="12" height="12" x="84" y="84" fill="#161b22" rx="2" />
<rect width="12" height="12" x="98" y="0" fill="#161b22" rx="2" />
<rect width="12" height="12" x="98" y="14" fill="#161b22" rx="2" />
<rect width="12" height="12" x="98" y="28" fill="#161b22" rx="2" />
<rect width="12" height="12" x="98" y="42" fill="#0e4429" rx="2" />
<rect width="12" height="12" x="98" y="56" fill="#161b22" rx="2" />
<rect width="12" height="12" x="98" y="70" fill="#0e4429" rx="2" />
<rect width="12" height="12" x="98" y="84" fill="#006d32" rx="2" />
<rect width="12" height="12" x="112" y="0" fill="#161b22" rx="2" />
<rect width="12" height="12" x="112" y="14" fill="#161b22" rx="2" />
<rect width="12" height="12" x="112" y="28" fill="#161b22" rx="2" />
<rect width="12" height="12" x="112" y="42" fill="#26a641" rx="2" class="commit-pulse" />
<rect width="12" height="12" x="112" y="56" fill="#161b22" rx="2" />
<rect width="12" height="12" x="112" y="70" fill="#161b22" rx="2" />
<rect width="12" height="12" x="112" y="84" fill="#006d32" rx="2" />
<rect width="12" height="12" x="126" y="0" fill="#161b22" rx="2" />
<rect width="12" height="12" x="126" y="14" fill="#006d32" rx="2" />
<rect width="12" height="12" x="126" y="28" fill="#0e4429" rx="2" />
<rect width="12" height="12" x="126" y="42" fill="#161b22" rx="2" />
<rect width="12" height="12" x="126" y="56" fill="#161b22" rx="2" />
<rect width="12" height="12" x="126" y="70" fill="#161b22" rx="2" />
<rect width="12" height="12" x="126" y="84" fill="#161b22" rx="2" />
<rect width="12" height="12" x="140" y="0" fill="#161b22" rx="2" />
<rect width="12" height="12" x="140" y="14" fill="#161b22" rx="2" />
<rect width="12" height="12" x="140" y="28" fill="#0e4429" rx="2" />
<rect width="12" height="12" x="140" y="42" fill="#161b22" rx="2" />
<rect width="12" height="12" x="140" y="56" fill="#0e4429" rx="2" />
<rect width="12" height="12" x="140" y="70" fill="#26a641" rx="2" class="commit-pulse" />
<rect width="12" height="12" x="140" y="84" fill="#161b22" rx="2" />
<rect width="12" height="12" x="154" y="0" fill="#161b22" rx="2" />
<rect width="12" height="12" x="154" y="14" fill="#161b22" rx="2" />
<rect width="12" height="12" x="154" y="28" fill="#161b22" rx="2" />
<rect width="12" height="12" x="154" y="42" fill="#0e4429" rx="2" />
<rect width="12" height="12" x="154" y="56" fill="#161b22" rx="2" />
<rect width="12" height="12" x="154" y="70" fill="#161b22" rx="2" />
<rect width="12" height="12" x="154" y="84" fill="#161b22" rx="2" />
<rect width="12" height="12" x="168" y="0" fill="#006d32" rx="2" />
<rect width="12" height="12" x="168" y="14" fill="#161b22" rx="2" />
<rect width="12" height="12" x="168" y="28" fill="#161b22" rx="2" />
<rect width="12" height="12" x="168" y="42" fill="#39d353" rx="2" class="commit-pulse" />
<rect width="12" height="12" x="168" y="56" fill="#0e4429" rx="2" />
<rect width="12" height="12" x="168" y="70" fill="#39d353" rx="2" class="commit-pulse" />
<rect width="12" height="12" x="168" y="84" fill="#161b22" rx="2" />
<rect width="12" height="12" x="182" y="0" fill="#26a641" rx="2" />
<rect width="12" height="12" x="182" y="14" fill="#161b22" rx="2" />
<rect width="12" height="12" x="182" y="28" fill="#161b22" rx="2" />
<rect width="12" height="12" x="182" y="42" fill="#161b22" rx="2" />
<rect width="12" height="12" x="182" y="56" fill="#0e4429" rx="2" />
<rect width="12" height="12" x="182" y="70" fill="#161b22" rx="2" />
<rect width="12" height="12" x="182" y="84" fill="#161b22" rx="2" />
<rect width="12" height="12" x="196" y="0" fill="#161b22" rx="2" />
<rect width="12" height="12" x="196" y="14" fill="#161b22" rx="2" />
<rect width="12" height="12" x="196" y="28" fill="#006d32" rx="2" />
<rect width="12" height="12" x="196" y="42" fill="#006d32" rx="2" />
<rect width="12" height="12" x="196" y="56" fill="#161b22" rx="2" />
<rect width="12" height="12" x="196" y="70" fill="#0e4429" rx="2" />
<rect width="12" height="12" x="196" y="84" fill="#161b22" rx="2" />
<rect width="12" height="12" x="210" y="0" fill="#161b22" rx="2" />
<rect width="12" height="12" x="210" y="14" fill="#0e4429" rx="2" />
<rect width="12" height="12" x="210" y="28" fill="#0e4429" rx="2" />
<rect width="12" height="12" x="210" y="42" fill="#161b22" rx="2" />
<rect width="12" height="12" x="210" y="56" fill="#0e4429" rx="2" />
<rect width="12" height="12" x="210" y="70" fill="#161b22" rx="2" />
<rect width="12" height="12" x="210" y="84" fill="#006d32" rx="2" />
<rect width="12" height="12" x="224" y="0" fill="#26a641" rx="2" class="commit-pulse" />
<rect width="12" height="12" x="224" y="14" fill="#006d32" rx="2" />
<rect width="12" height="12" x="224" y="28" fill="#0e4429" rx="2" />
<rect width="12" height="12" x="224" y="42" fill="#161b22" rx="2" />
<rect width="12" height="12" x="224" y="56" fill="#006d32" rx="2" />
<rect width="12" height="12" x="224" y="70" fill="#0e4429" rx="2" />
<rect width="12" height="12" x="224" y="84" fill="#006d32" rx="2" />
<rect width="12" height="12" x="238" y="0" fill="#161b22" rx="2" />
<rect width="12" height="12" x="238" y="14" fill="#161b22" rx="2" />
<rect width="12" height="12" x="238" y="28" fill="#161b22" rx="2" />
<rect width="12" height="12" x="238" y="42" fill="#26a641" rx="2" />
<rect width="12" height="12" x="238" y="56" fill="#161b22" rx="2" />
<rect width="12" height="12" x="238" y="70" fill="#0e4429" rx="2" />
<rect width="12" height="12" x="238" y="84" fill="#0e4429" rx="2" />
<rect width="12" height="12" x="252" y="0" fill="#26a641" rx="2" class="commit-pulse" />
<rect width="12" height="12" x="252" y="14" fill="#161b22" rx="2" />
<rect width="12" height="12" x="252" y="28" fill="#006d32" rx="2" />
<rect width="12" height="12" x="252" y="42" fill="#26a641" rx="2" />
<rect width="12" height="12" x="252" y="56" fill="#006d32" rx="2" />
<rect width="12" height="12" x="252" y="70" fill="#006d32" rx="2" />
<rect width="12" height="12" x="252" y="84" fill="#26a641" rx="2" />
<rect width="12" height="12" x="266" y="0" fill="#161b22" rx="2" />
<rect width="12" height="12" x="266" y="14" fill="#161b22" rx="2" />
<rect width="12" height="12" x="266" y="28" fill="#161b22" rx="2" />
<rect width="12" height="12" x="266" y="42" fill="#0e4429" rx="2" />
<rect width="12" height="12" x="266" y="56" fill="#0e4429" rx="2" />
<rect width="12" height="12" x="266" y="70" fill="#161b22" rx="2" />
<rect width="12" height="12" x="266" y="84" fill="#161b22" rx="2" />
<rect width="12" height="12" x="280" y="0" fill="#161b22" rx="2" />
<rect width="12" height="12" x="280" y="14" fill="#161b22" rx="2" />
<rect width="12" height="12" x="280" y="28" fill="#161b22" rx="2" />
<rect width="12" height="12" x="280" y="42" fill="#161b22" rx="2" />
<rect width="12" height="12" x="280" y="56" fill="#161b22" rx="2" />
<rect width="12" height="12" x="280" y="70" fill="#0e4429" rx="2" />
<rect width="12" height="12" x="280" y="84" fill="#0e4429" rx="2" />
<rect width="12" height="12" x="294" y="0" fill="#26a641" rx="2" class="commit-pulse" />
<rect width="12" height="12" x="294" y="14" fill="#0e4429" rx="2" />
<rect width="12" height="12" x="294" y="28" fill="#161b22" rx="2" />
<rect width="12" height="12" x="294" y="42" fill="#0e4429" rx="2" />
<rect width="12" height="12" x="294" y="56" fill="#161b22" rx="2" />
<rect width="12" height="12" x="294" y="70" fill="#161b22" rx="2" />
<rect width="12" height="12" x="294" y="84" fill="#161b22" rx="2" />
<rect width="12" height="12" x="308" y="0" fill="#161b22" rx="2" />
<rect width="12" height="12" x="308" y="14" fill="#161b22" rx="2" />
<rect width="12" height="12" x="308" y="28" fill="#006d32" rx="2" />
<rect width="12" height="12" x="308" y="42" fill="#0e4429" rx="2" />
<rect width="12" height="12" x="308" y="56" fill="#161b22" rx="2" />
<rect width="12" height="12" x="308" y="70" fill="#161b22" rx="2" />
<rect width="12" height="12" x="308" y="84" fill="#39d353" rx="2" class="commit-pulse" />
<rect width="12" height="12" x="322" y="0" fill="#161b22" rx="2" />
<rect width="12" height="12" x="322" y="14" fill="#006d32" rx="2" />
<rect width="12" height="12" x="322" y="28" fill="#006d32" rx="2" />
<rect width="12" height="12" x="322" y="42" fill="#0e4429" rx="2" />
<rect width="12" height="12" x="322" y="56" fill="#0e4429" rx="2" />
<rect width="12" height="12" x="322" y="70" fill="#161b22" rx="2" />
<rect width="12" height="12" x="322" y="84" fill="#0e4429" rx="2" />
<rect width="12" height="12" x="336" y="0" fill="#006d32" rx="2" />
<rect width="12" height="12" x="336" y="14" fill="#161b22" rx="2" />
<rect width="12" height="12" x="336" y="28" fill="#006d32" rx="2" />
<rect width="12" height="12" x="336" y="42" fill="#26a641" rx="2" class="commit-pulse" />
<rect width="12" height="12" x="336" y="56" fill="#161b22" rx="2" />
<rect width="12" height="12" x="336" y="70" fill="#161b22" rx="2" />
<rect width="12" height="12" x="336" y="84" fill="#161b22" rx="2" />
<rect width="12" height="12" x="350" y="0" fill="#161b22" rx="2" />
<rect width="12" height="12" x="350" y="14" fill="#26a641" rx="2" class="commit-pulse" />
<rect width="12" height="12" x="350" y="28" fill="#39d353" rx="2" class="commit-pulse" />
<rect width="12" height="12" x="350" y="42" fill="#161b22" rx="2" />
<rect width="12" height="12" x="350" y="56" fill="#0e4429" rx="2" />
<rect width="12" height="12" x="350" y="70" fill="#161b22" rx="2" />
<rect width="12" height="12" x="350" y="84" fill="#39d353" rx="2" class="commit-pulse" />
<rect width="12" height="12" x="364" y="0" fill="#006d32" rx="2" />
<rect width="12" height="12" x="364" y="14" fill="#161b22" rx="2" />
<rect width="12" height="12" x="364" y="28" fill="#006d32" rx="2" />
<rect width="12" height="12" x="364" y="42" fill="#39d353" rx="2" class="commit-pulse" />
<rect width="12" height="12" x="364" y="56" fill="#161b22" rx="2" />
<rect width="12" height="12" x="364" y="70" fill="#161b22" rx="2" />
<rect width="12" height="12" x="364" y="84" fill="#161b22" rx="2" />
<rect width="12" height="12" x="378" y="0" fill="#161b22" rx="2" />
<rect width="12" height="12" x="378" y="14" fill="#161b22" rx="2" />
<rect width="12" height="12" x="378" y="28" fill="#161b22" rx="2" />
<rect width="12" height="12" x="378" y="42" fill="#26a641" rx="2" class="commit-pulse" />
<rect width="12" height="12" x="378" y="56" fill="#161b22" rx="2" />
<rect width="12" height="12" x="378" y="70" fill="#26a641" rx="2" />
<rect width="12" height="12" x="378" y="84" fill="#161b22" rx="2" />
<rect width="12" height="12" x="392" y="0" fill="#161b22" rx="2" />
<rect width="12" height="12" x="392" y="14" fill="#0e4429" rx="2" />
<rect width="12" height="12" x="392" y="28" fill="#26a641" rx="2" />
<rect width="12" height="12" x="392" y="42" fill="#161b22" rx="2" />
<rect width="12" height="12" x="392" y="56" fill="#161b22" rx="2" />
<rect width="12" height="12" x="392" y="70" fill="#161b22" rx="2" />
<rect width="12" height="12" x="392" y="84" fill="#161b22" rx="2" />
<rect width="12" height="12" x="406" y="0" fill="#161b22" rx="2" />
<rect width="12" height="12" x="406" y="14" fill="#0e4429" rx="2" />
<rect width="12" height="12" x="406" y="28" fill="#0e4429" rx="2" />
<rect width="12" height="12" x="406" y="42" fill="#161b22" rx="2" />
<rect width="12" height="12" x="406" y="56" fill="#161b22" rx="2" />
<rect width="12" height="12" x="406" y="70" fill="#161b22" rx="2" />
<rect width="12" height="12" x="406" y="84" fill="#0e4429" rx="2" />
<rect width="12" height="12" x="420" y="0" fill="#161b22" rx="2" />
<rect width="12" height="12" x="420" y="14" fill="#161b22" rx="2" />
<rect width="12" height="12" x="420" y="28" fill="#161b22" rx="2" />
<rect width="12" height="12" x="420" y="42" fill="#26a641" rx="2" />
<rect width="12" height="12" x="420" y="56" fill="#006d32" rx="2" />
<rect width="12" height="12" x="420" y="70" fill="#161b22" rx="2" />
<rect width="12" height="12" x="420" y="84" fill="#26a641" rx="2" class="commit-pulse" />
<rect width="12" height="12" x="434" y="0" fill="#26a641" rx="2" />
<rect width="12" height="12" x="434" y="14" fill="#006d32" rx="2" />
<rect width="12" height="12" x="434" y="28" fill="#0e4429" rx="2" />
<rect width="12" height="12" x="434" y="42" fill="#006d32" rx="2" />
<rect width="12" height="12" x="434" y="56" fill="#161b22" rx="2" />
<rect width="12" height="12" x="434" y="70" fill="#006d32" rx="2" />
<rect width="12" height="12" x="434" y="84" fill="#161b22" rx="2" />
<rect width="12" height="12" x="448" y="0" fill="#0e4429" rx="2" />
<rect width="12" height="12" x="448" y="14" fill="#161b22" rx="2" />
<rect width="12" height="12" x="448" y="28" fill="#161b22" rx="2" />
<rect width="12" height="12" x="448" y="42" fill="#161b22" rx="2" />
<rect width="12" height="12" x="448" y="56" fill="#0e4429" rx="2" />
<rect width="12" height="12" x="448" y="70" fill="#006d32" rx="2" />
<rect width="12" height="12" x="448" y="84" fill="#161b22" rx="2" />
<rect width="12" height="12" x="462" y="0" fill="#161b22" rx="2" />
<rect width="12" height="12" x="462" y="14" fill="#0e4429" rx="2" />
<rect width="12" height="12" x="462" y="28" fill="#26a641" rx="2" />
<rect width="12" height="12" x="462" y="42" fill="#161b22" rx="2" />
<rect width="12" height="12" x="462" y="56" fill="#161b22" rx="2" />
<rect width="12" height="12" x="462" y="70" fill="#161b22" rx="2" />
<rect width="12" height="12" x="462" y="84" fill="#161b22" rx="2" />
<rect width="12" height="12" x="476" y="0" fill="#161b22" rx="2" />
<rect width="12" height="12" x="476" y="14" fill="#26a641" rx="2" />
<rect width="12" height="12" x="476" y="28" fill="#0e4429" rx="2" />
<rect width="12" height="12" x="476" y="42" fill="#006d32" rx="2" />
<rect width="12" height="12" x="476" y="56" fill="#0e4429" rx="2" />
<rect width="12" height="12" x="476" y="70" fill="#0e4429" rx="2" />
<rect width="12" height="12" x="476" y="84" fill="#39d353" rx="2" class="commit-pulse" />
<rect width="12" height="12" x="490" y="0" fill="#161b22" rx="2" />
<rect width="12" height="12" x="490" y="14" fill="#0e4429" rx="2" />
<rect width="12" height="12" x="490" y="28" fill="#26a641" rx="2" />
<rect width="12" height="12" x="490" y="42" fill="#161b22" rx="2" />
<rect width="12" height="12" x="490" y="56" fill="#161b22" rx="2" />
<rect width="12" height="12" x="490" y="70" fill="#161b22" rx="2" />
<rect width="12" height="12" x="490" y="84" fill="#161b22" rx="2" />
<rect width="12" height="12" x="504" y="0" fill="#161b22" rx="2" />
<rect width="12" height="12" x="504" y="14" fill="#39d353" rx="2" class="commit-pulse" />
<rect width="12" height="12" x="504" y="28" fill="#26a641" rx="2" />
<rect width="12" height="12" x="504" y="42" fill="#161b22" rx="2" />
<rect width="12" height="12" x="504" y="56" fill="#006d32" rx="2" />
<rect width="12" height="12" x="504" y="70" fill="#0e4429" rx="2" />
<rect width="12" height="12" x="504" y="84" fill="#161b22" rx="2" />
<rect width="12" height="12" x="518" y="0" fill="#161b22" rx="2" />
<rect width="12" height="12" x="518" y="14" fill="#161b22" rx="2" />
<rect width="12" height="12" x="518" y="28" fill="#006d32" rx="2" />
<rect width="12" height="12" x="518" y="42" fill="#161b22" rx="2" />
<rect width="12" height="12" x="518" y="56" fill="#0e4429" rx="2" />
<rect width="12" height="12" x="518" y="70" fill="#006d32" rx="2" />
<rect width="12" height="12" x="518" y="84" fill="#161b22" rx="2" />
<rect width="12" height="12" x="532" y="0" fill="#006d32" rx="2" />
<rect width="12" height="12" x="532" y="14" fill="#161b22" rx="2" />
<rect width="12" height="12" x="532" y="28" fill="#161b22" rx="2" />
<rect width="12" height="12" x="532" y="42" fill="#0e4429" rx="2" />
<rect width="12" height="12" x="532" y="56" fill="#26a641" rx="2" class="commit-pulse" />
<rect width="12" height="12" x="532" y="70" fill="#006d32" rx="2" />
<rect width="12" height="12" x="532" y="84" fill="#161b22" rx="2" />
<rect width="12" height="12" x="546" y="0" fill="#0e4429" rx="2" />
<rect width="12" height="12" x="546" y="14" fill="#161b22" rx="2" />
<rect width="12" height="12" x="546" y="28" fill="#161b22" rx="2" />
<rect width="12" height="12" x="546" y="42" fill="#26a641" rx="2" class="commit-pulse" />
<rect width="12" height="12" x="546" y="56" fill="#161b22" rx="2" />
<rect width="12" height="12" x="546" y="70" fill="#006d32" rx="2" />
<rect width="12" height="12" x="546" y="84" fill="#0e4429" rx="2" />
<rect width="12" height="12" x="560" y="0" fill="#0e4429" rx="2" />
<rect width="12" height="12" x="560" y="14" fill="#161b22" rx="2" />
<rect width="12" height="12" x="560" y="28" fill="#161b22" rx="2" />
<rect width="12" height="12" x="560" y="42" fill="#0e4429" rx="2" />
<rect width="12" height="12" x="560" y="56" fill="#0e4429" rx="2" />
<rect width="12" height="12" x="560" y="70" fill="#161b22" rx="2" />
<rect width="12" height="12" x="560" y="84" fill="#26a641" rx="2" />
<rect width="12" height="12" x="574" y="0" fill="#39d353" rx="2" class="commit-pulse" />
<rect width="12" height="12" x="574" y="14" fill="#161b22" rx="2" />
<rect width="12" height="12" x="574" y="28" fill="#161b22" rx="2" />
<rect width="12" height="12" x="574" y="42" fill="#161b22" rx="2" />
<rect width="12" height="12" x="574" y="56" fill="#161b22" rx="2" />
<rect width="12" height="12" x="574" y="70" fill="#161b22" rx="2" />
<rect width="12" height="12" x="574" y="84" fill="#161b22" rx="2" />
</g>
<text x="12" y="22" class="text"><tspan class="text-title">Prathamesh's</tspan> Model Training Contributions</text>
<g class="pika">
<g transform="translate(0, 0)">
<rect x="6" y="0" width="3" height="3" fill="#000000" />
<rect x="39" y="0" width="3" height="3" fill="#000000" />
<rect x="6" y="3" width="3" height="3" fill="#000000" />
<rect x="9" y="3" width="3" height="3" fill="#000000" />
<rect x="36" y="3" width="3" height="3" fill="#000000" />
<rect x="39" y="3" width="3" height="3" fill="#000000" />
<rect x="6" y="6" width="3" height="3" fill="#FADB14" />
<rect x="9" y="6" width="3" height="3" fill="#000000" />
<rect x="12" y="6" width="3" height="3" fill="#000000" />
<rect x="15" y="6" width="3" height="3" fill="#FADB14" />
<rect x="18" y="6" width="3" height="3" fill="#FADB14" />
<rect x="21" y="6" width="3" height="3" fill="#FADB14" />
<rect x="24" y="6" width="3" height="3" fill="#FADB14" />
<rect x="27" y="6" width="3" height="3" fill="#FADB14" />
<rect x="30" y="6" width="3" height="3" fill="#FADB14" />
<rect x="33" y="6" width="3" height="3" fill="#000000" />
<rect x="36" y="6" width="3" height="3" fill="#000000" />
<rect x="39" y="6" width="3" height="3" fill="#FADB14" />
<rect x="3" y="9" width="3" height="3" fill="#FADB14" />
<rect x="6" y="9" width="3" height="3" fill="#FADB14" />
<rect x="9" y="9" width="3" height="3" fill="#FADB14" />
<rect x="12" y="9" width="3" height="3" fill="#FADB14" />
<rect x="15" y="9" width="3" height="3" fill="#FADB14" />
<rect x="18" y="9" width="3" height="3" fill="#FADB14" />
<rect x="21" y="9" width="3" height="3" fill="#FADB14" />
<rect x="24" y="9" width="3" height="3" fill="#FADB14" />
<rect x="27" y="9" width="3" height="3" fill="#FADB14" />
<rect x="30" y="9" width="3" height="3" fill="#FADB14" />
<rect x="33" y="9" width="3" height="3" fill="#FADB14" />
<rect x="36" y="9" width="3" height="3" fill="#FADB14" />
<rect x="39" y="9" width="3" height="3" fill="#FADB14" />
<rect x="42" y="9" width="3" height="3" fill="#FADB14" />
<rect x="3" y="12" width="3" height="3" fill="#FADB14" />
<rect x="6" y="12" width="3" height="3" fill="#FADB14" />
<rect x="9" y="12" width="3" height="3" fill="#FFFFFF" />
<rect x="12" y="12" width="3" height="3" fill="#000000" />
<rect x="15" y="12" width="3" height="3" fill="#FADB14" />
<rect x="18" y="12" width="3" height="3" fill="#FADB14" />
<rect x="21" y="12" width="3" height="3" fill="#FADB14" />
<rect x="24" y="12" width="3" height="3" fill="#FADB14" />
<rect x="27" y="12" width="3" height="3" fill="#FADB14" />
<rect x="30" y="12" width="3" height="3" fill="#FADB14" />
<rect x="33" y="12" width="3" height="3" fill="#FFFFFF" />
<rect x="36" y="12" width="3" height="3" fill="#000000" />
<rect x="39" y="12" width="3" height="3" fill="#FADB14" />
<rect x="42" y="12" width="3" height="3" fill="#FADB14" />
<rect x="3" y="15" width="3" height="3" fill="#FADB14" />
<rect x="6" y="15" width="3" height="3" fill="#FADB14" />
<rect x="9" y="15" width="3" height="3" fill="#000000" />
<rect x="12" y="15" width="3" height="3" fill="#000000" />
<rect x="15" y="15" width="3" height="3" fill="#FADB14" />
<rect x="18" y="15" width="3" height="3" fill="#FADB14" />
<rect x="21" y="15" width="3" height="3" fill="#FADB14" />
<rect x="24" y="15" width="3" height="3" fill="#FADB14" />
<rect x="27" y="15" width="3" height="3" fill="#FADB14" />
<rect x="30" y="15" width="3" height="3" fill="#FADB14" />
<rect x="33" y="15" width="3" height="3" fill="#000000" />
<rect x="36" y="15" width="3" height="3" fill="#000000" />
<rect x="39" y="15" width="3" height="3" fill="#FADB14" />
<rect x="42" y="15" width="3" height="3" fill="#FADB14" />
<rect x="3" y="18" width="3" height="3" fill="#FADB14" />
<rect x="6" y="18" width="3" height="3" fill="#FADB14" />
<rect x="9" y="18" width="3" height="3" fill="#FADB14" />
<rect x="12" y="18" width="3" height="3" fill="#FADB14" />
<rect x="15" y="18" width="3" height="3" fill="#FADB14" />
<rect x="18" y="18" width="3" height="3" fill="#FADB14" />
<rect x="21" y="18" width="3" height="3" fill="#000000" />
<rect x="24" y="18" width="3" height="3" fill="#000000" />
<rect x="27" y="18" width="3" height="3" fill="#FADB14" />
<rect x="30" y="18" width="3" height="3" fill="#FADB14" />
<rect x="33" y="18" width="3" height="3" fill="#FADB14" />
<rect x="36" y="18" width="3" height="3" fill="#FADB14" />
<rect x="39" y="18" width="3" height="3" fill="#FADB14" />
<rect x="42" y="18" width="3" height="3" fill="#FADB14" />
<rect x="0" y="21" width="3" height="3" fill="#FF4D4F" />
<rect x="3" y="21" width="3" height="3" fill="#FF4D4F" />
<rect x="6" y="21" width="3" height="3" fill="#FADB14" />
<rect x="9" y="21" width="3" height="3" fill="#FADB14" />
<rect x="12" y="21" width="3" height="3" fill="#FADB14" />
<rect x="15" y="21" width="3" height="3" fill="#FADB14" />
<rect x="18" y="21" width="3" height="3" fill="#000000" />
<rect x="21" y="21" width="3" height="3" fill="#FADB14" />
<rect x="24" y="21" width="3" height="3" fill="#FADB14" />
<rect x="27" y="21" width="3" height="3" fill="#000000" />
<rect x="30" y="21" width="3" height="3" fill="#FADB14" />
<rect x="33" y="21" width="3" height="3" fill="#FADB14" />
<rect x="36" y="21" width="3" height="3" fill="#FADB14" />
<rect x="39" y="21" width="3" height="3" fill="#FADB14" />
<rect x="42" y="21" width="3" height="3" fill="#FF4D4F" />
<rect x="45" y="21" width="3" height="3" fill="#FF4D4F" />
<rect x="0" y="24" width="3" height="3" fill="#FF4D4F" />
<rect x="3" y="24" width="3" height="3" fill="#FF4D4F" />
<rect x="6" y="24" width="3" height="3" fill="#FADB14" />
<rect x="9" y="24" width="3" height="3" fill="#FADB14" />
<rect x="12" y="24" width="3" height="3" fill="#FADB14" />
<rect x="15" y="24" width="3" height="3" fill="#FADB14" />
<rect x="18" y="24" width="3" height="3" fill="#FADB14" />
<rect x="21" y="24" width="3" height="3" fill="#FADB14" />
<rect x="24" y="24" width="3" height="3" fill="#FADB14" />
<rect x="27" y="24" width="3" height="3" fill="#FADB14" />
<rect x="30" y="24" width="3" height="3" fill="#FADB14" />
<rect x="33" y="24" width="3" height="3" fill="#FADB14" />
<rect x="36" y="24" width="3" height="3" fill="#FADB14" />
<rect x="39" y="24" width="3" height="3" fill="#FADB14" />
<rect x="42" y="24" width="3" height="3" fill="#FF4D4F" />
<rect x="45" y="24" width="3" height="3" fill="#FF4D4F" />
<rect x="3" y="27" width="3" height="3" fill="#FADB14" />
<rect x="6" y="27" width="3" height="3" fill="#FADB14" />
<rect x="9" y="27" width="3" height="3" fill="#FADB14" />
<rect x="12" y="27" width="3" height="3" fill="#FADB14" />
<rect x="15" y="27" width="3" height="3" fill="#FADB14" />
<rect x="18" y="27" width="3" height="3" fill="#FADB14" />
<rect x="21" y="27" width="3" height="3" fill="#FADB14" />
<rect x="24" y="27" width="3" height="3" fill="#FADB14" />
<rect x="27" y="27" width="3" height="3" fill="#FADB14" />
<rect x="30" y="27" width="3" height="3" fill="#FADB14" />
<rect x="33" y="27" width="3" height="3" fill="#FADB14" />
<rect x="36" y="27" width="3" height="3" fill="#FADB14" />
<rect x="39" y="27" width="3" height="3" fill="#FADB14" />
<rect x="42" y="27" width="3" height="3" fill="#FADB14" />
<rect x="6" y="30" width="3" height="3" fill="#FADB14" />
<rect x="9" y="30" width="3" height="3" fill="#FADB14" />
<rect x="12" y="30" width="3" height="3" fill="#FADB14" />
<rect x="15" y="30" width="3" height="3" fill="#FADB14" />
<rect x="18" y="30" width="3" height="3" fill="#FADB14" />
<rect x="21" y="30" width="3" height="3" fill="#FADB14" />
<rect x="24" y="30" width="3" height="3" fill="#FADB14" />
<rect x="27" y="30" width="3" height="3" fill="#FADB14" />
<rect x="30" y="30" width="3" height="3" fill="#FADB14" />
<rect x="33" y="30" width="3" height="3" fill="#FADB14" />
<rect x="36" y="30" width="3" height="3" fill="#FADB14" />
<rect x="39" y="30" width="3" height="3" fill="#FADB14" />
<rect x="45" y="30" width="3" height="3" fill="#D48806" />
<rect x="9" y="33" width="3" height="3" fill="#FADB14" />
<rect x="12" y="33" width="3" height="3" fill="#FADB14" />
<rect x="15" y="33" width="3" height="3" fill="#FADB14" />
<rect x="18" y="33" width="3" height="3" fill="#FADB14" />
<rect x="21" y="33" width="3" height="3" fill="#FADB14" />
<rect x="24" y="33" width="3" height="3" fill="#FADB14" />
<rect x="27" y="33" width="3" height="3" fill="#FADB14" />
<rect x="30" y="33" width="3" height="3" fill="#FADB14" />
<rect x="33" y="33" width="3" height="3" fill="#FADB14" />
<rect x="36" y="33" width="3" height="3" fill="#FADB14" />
<rect x="42" y="33" width="3" height="3" fill="#D48806" />
<rect x="45" y="33" width="3" height="3" fill="#D48806" />
<rect x="12" y="36" width="3" height="3" fill="#FADB14" />
<rect x="15" y="36" width="3" height="3" fill="#FADB14" />
<rect x="18" y="36" width="3" height="3" fill="#FADB14" />
<rect x="21" y="36" width="3" height="3" fill="#FADB14" />
<rect x="24" y="36" width="3" height="3" fill="#FADB14" />
<rect x="27" y="36" width="3" height="3" fill="#FADB14" />
<rect x="30" y="36" width="3" height="3" fill="#FADB14" />
<rect x="33" y="36" width="3" height="3" fill="#FADB14" />
<rect x="42" y="36" width="3" height="3" fill="#D48806" />
<rect x="9" y="39" width="3" height="3" fill="#FADB14" />
<rect x="12" y="39" width="3" height="3" fill="#FADB14" />
<rect x="15" y="39" width="3" height="3" fill="#FADB14" />
<rect x="30" y="39" width="3" height="3" fill="#FADB14" />
<rect x="33" y="39" width="3" height="3" fill="#FADB14" />
<rect x="36" y="39" width="3" height="3" fill="#FADB14" />
<rect x="6" y="42" width="3" height="3" fill="#FADB14" />
<rect x="9" y="42" width="3" height="3" fill="#FADB14" />
<rect x="12" y="42" width="3" height="3" fill="#FADB14" />
<rect x="15" y="42" width="3" height="3" fill="#FADB14" />
<rect x="30" y="42" width="3" height="3" fill="#FADB14" />
<rect x="33" y="42" width="3" height="3" fill="#FADB14" />
<rect x="36" y="42" width="3" height="3" fill="#FADB14" />
<rect x="39" y="42" width="3" height="3" fill="#FADB14" />
</g>
<g class="msg0" transform="translate(45, -35)">
<rect width="267.5" height="26" class="bubble" />
<text x="10" y="17" class="text">⚡ Pika! (Initializing YOLOv12...)</text>
</g>
<g class="msg1" transform="translate(45, -35)">
<rect width="252.5" height="26" class="bubble" />
<text x="10" y="17" class="text">🧠 Pika-Pi? (Model overfitting?)</text>
</g>
<g class="msg2" transform="translate(45, -35)">
<rect width="207.5" height="26" class="bubble" />
<text x="10" y="17" class="text">🐍 import tensorflow as tf</text>
</g>
<g class="msg3" transform="translate(45, -35)">
<rect width="252.5" height="26" class="bubble" />
<text x="10" y="17" class="text">🤖 Beep Boop! AI Assistant Ready</text>
</g>
<g class="msg4" transform="translate(45, -35)">
<rect width="305.0" height="26" class="bubble" />
<text x="10" y="17" class="text">📉 Pika! (Gradient descent in progress)</text>
</g>
<g class="msg5" transform="translate(45, -35)">
<rect width="222.5" height="26" class="bubble" />
<text x="10" y="17" class="text">🦉 Training models at 3AM...</text>
</g>
</g>
</svg>